<?xml version="1.0" encoding="UTF-8"?>
<svg width="27px" height="23px" viewBox="0 0 27 23" version="1.1" xmlns="http://www.w3.org/2000/svg" xmlns:xlink="http://www.w3.org/1999/xlink">
    <!-- Generator: Sketch 47.1 (45422) - http://www.bohemiancoding.com/sketch -->
    <title>Artboard</title>
    <desc>Created with Sketch.</desc>
    <defs></defs>
    <g id="Page-1" stroke="none" stroke-width="1" fill="none" fill-rule="evenodd">
        <g id="Artboard" fill="#C2B391">
            <g id="Group">
                <path d="M12.4112903,14.8649518 L12.4112903,17.0096463 L10.233871,17.0096463 L10.233871,19.1543408 L12.4112903,19.1543408 L12.4112903,23 L14.5887097,23 L14.5887097,19.0803859 L16.766129,19.0803859 L16.766129,16.9356913 L14.5887097,16.9356913 L14.5887097,14.8649518 L12.4112903,14.8649518 Z M26.1290323,0.0739549839 L0.870967742,0.0739549839 C0.38994554,0.0739549839 0,0.471284273 0,0.961414791 L0,18.192926 C0,18.6830566 0.38994554,19.0803859 0.870967742,19.0803859 L8.05645161,19.0803859 L8.05645161,16.9356913 L2.17741935,16.9356913 L2.17741935,2.14469453 L12.4112903,2.14469453 L12.4112903,12.7202572 L14.5887097,12.7202572 L14.5887097,2.14469453 L24.8225806,2.14469453 L24.8225806,16.9356913 L18.9435484,16.9356913 L18.9435484,19.0803859 L26.1290323,19.0803859 C26.6100545,19.0803859 27,18.6830566 27,18.192926 L27,0.887459807 C27,0.39732929 26.6100545,0 26.1290323,0 L26.1290323,0.0739549839 Z M16.766129,14.7909968 L22.6451613,14.7909968 L22.6451613,12.7202572 L16.766129,12.7202572 L16.766129,14.7909968 Z M16.766129,10.5755627 L22.6451613,10.5755627 L22.6451613,8.50482315 L16.766129,8.50482315 L16.766129,10.5755627 Z M22.6451613,4.21543408 L16.766129,4.21543408 L16.766129,6.36012862 L22.6451613,6.36012862 L22.6451613,4.21543408 Z M10.233871,4.21543408 L4.35483871,4.21543408 L4.35483871,6.36012862 L10.233871,6.36012862 L10.233871,4.21543408 Z M4.35483871,14.7909968 L10.233871,14.7909968 L10.233871,12.7202572 L4.35483871,12.7202572 L4.35483871,14.7909968 Z M4.35483871,10.5755627 L10.233871,10.5755627 L10.233871,8.50482315 L4.35483871,8.50482315 L4.35483871,10.5755627 Z" id="Shape"></path>
            </g>
        </g>
    </g>
</svg>